<svg xmlns="http://www.w3.org/2000/svg" width="1340" height="640" viewBox="0 0 1340 640" role="img" aria-label="Grid overlay made of white outlined square cells on transparent background">
  <g fill="none" stroke="#FFFFFF" stroke-opacity="0.72" stroke-width="2" vector-effect="non-scaling-stroke">
    <rect x="120" y="20" width="100" height="100" fill="none" stroke="#FFFFFF" stroke-opacity="0.72" stroke-width="2" vector-effect="non-scaling-stroke"/> <rect x="320" y="20" width="100" height="100" fill="none" stroke="#FFFFFF" stroke-opacity="0.72" stroke-width="2" vector-effect="non-scaling-stroke"/> <rect x="720" y="20" width="100" height="100" fill="none" stroke="#FFFFFF" stroke-opacity="0.72" stroke-width="2" vector-effect="non-scaling-stroke"/> <rect x="820" y="20" width="100" height="100" fill="none" stroke="#FFFFFF" stroke-opacity="0.72" stroke-width="2" vector-effect="non-scaling-stroke"/> <rect x="1020" y="20" width="100" height="100" fill="none" stroke="#FFFFFF" stroke-opacity="0.72" stroke-width="2" vector-effect="non-scaling-stroke"/> <rect x="1120" y="20" width="100" height="100" fill="none" stroke="#FFFFFF" stroke-opacity="0.72" stroke-width="2" vector-effect="non-scaling-stroke"/> <rect x="20" y="120" width="100" height="100" fill="none" stroke="#FFFFFF" stroke-opacity="0.72" stroke-width="2" vector-effect="non-scaling-stroke"/> <rect x="120" y="120" width="100" height="100" fill="none" stroke="#FFFFFF" stroke-opacity="0.72" stroke-width="2" vector-effect="non-scaling-stroke"/> <rect x="220" y="120" width="100" height="100" fill="none" stroke="#FFFFFF" stroke-opacity="0.72" stroke-width="2" vector-effect="non-scaling-stroke"/> <rect x="320" y="120" width="100" height="100" fill="none" stroke="#FFFFFF" stroke-opacity="0.72" stroke-width="2" vector-effect="non-scaling-stroke"/> <rect x="420" y="120" width="100" height="100" fill="none" stroke="#FFFFFF" stroke-opacity="0.72" stroke-width="2" vector-effect="non-scaling-stroke"/> <rect x="520" y="120" width="100" height="100" fill="none" stroke="#FFFFFF" stroke-opacity="0.72" stroke-width="2" vector-effect="non-scaling-stroke"/> <rect x="620" y="120" width="100" height="100" fill="none" stroke="#FFFFFF" stroke-opacity="0.72" stroke-width="2" vector-effect="non-scaling-stroke"/> <rect x="720" y="120" width="100" height="100" fill="none" stroke="#FFFFFF" stroke-opacity="0.72" stroke-width="2" vector-effect="non-scaling-stroke"/> <rect x="820" y="120" width="100" height="100" fill="none" stroke="#FFFFFF" stroke-opacity="0.72" stroke-width="2" vector-effect="non-scaling-stroke"/> <rect x="920" y="120" width="100" height="100" fill="none" stroke="#FFFFFF" stroke-opacity="0.72" stroke-width="2" vector-effect="non-scaling-stroke"/> <rect x="1020" y="120" width="100" height="100" fill="none" stroke="#FFFFFF" stroke-opacity="0.72" stroke-width="2" vector-effect="non-scaling-stroke"/> <rect x="1120" y="120" width="100" height="100" fill="none" stroke="#FFFFFF" stroke-opacity="0.72" stroke-width="2" vector-effect="non-scaling-stroke"/> <rect x="1220" y="120" width="100" height="100" fill="none" stroke="#FFFFFF" stroke-opacity="0.72" stroke-width="2" vector-effect="non-scaling-stroke"/> <rect x="120" y="220" width="100" height="100" fill="none" stroke="#FFFFFF" stroke-opacity="0.72" stroke-width="2" vector-effect="non-scaling-stroke"/> <rect x="220" y="220" width="100" height="100" fill="none" stroke="#FFFFFF" stroke-opacity="0.72" stroke-width="2" vector-effect="non-scaling-stroke"/> <rect x="320" y="220" width="100" height="100" fill="none" stroke="#FFFFFF" stroke-opacity="0.72" stroke-width="2" vector-effect="non-scaling-stroke"/> <rect x="420" y="220" width="100" height="100" fill="none" stroke="#FFFFFF" stroke-opacity="0.72" stroke-width="2" vector-effect="non-scaling-stroke"/> <rect x="520" y="220" width="100" height="100" fill="none" stroke="#FFFFFF" stroke-opacity="0.72" stroke-width="2" vector-effect="non-scaling-stroke"/> <rect x="620" y="220" width="100" height="100" fill="none" stroke="#FFFFFF" stroke-opacity="0.72" stroke-width="2" vector-effect="non-scaling-stroke"/> <rect x="720" y="220" width="100" height="100" fill="none" stroke="#FFFFFF" stroke-opacity="0.72" stroke-width="2" vector-effect="non-scaling-stroke"/> <rect x="820" y="220" width="100" height="100" fill="none" stroke="#FFFFFF" stroke-opacity="0.72" stroke-width="2" vector-effect="non-scaling-stroke"/> <rect x="920" y="220" width="100" height="100" fill="none" stroke="#FFFFFF" stroke-opacity="0.72" stroke-width="2" vector-effect="non-scaling-stroke"/> <rect x="1020" y="220" width="100" height="100" fill="none" stroke="#FFFFFF" stroke-opacity="0.72" stroke-width="2" vector-effect="non-scaling-stroke"/> <rect x="1120" y="220" width="100" height="100" fill="none" stroke="#FFFFFF" stroke-opacity="0.72" stroke-width="2" vector-effect="non-scaling-stroke"/> <rect x="1220" y="220" width="100" height="100" fill="none" stroke="#FFFFFF" stroke-opacity="0.72" stroke-width="2" vector-effect="non-scaling-stroke"/> <rect x="20" y="320" width="100" height="100" fill="none" stroke="#FFFFFF" stroke-opacity="0.72" stroke-width="2" vector-effect="non-scaling-stroke"/> <rect x="120" y="320" width="100" height="100" fill="none" stroke="#FFFFFF" stroke-opacity="0.72" stroke-width="2" vector-effect="non-scaling-stroke"/> <rect x="220" y="320" width="100" height="100" fill="none" stroke="#FFFFFF" stroke-opacity="0.72" stroke-width="2" vector-effect="non-scaling-stroke"/> <rect x="320" y="320" width="100" height="100" fill="none" stroke="#FFFFFF" stroke-opacity="0.72" stroke-width="2" vector-effect="non-scaling-stroke"/> <rect x="420" y="320" width="100" height="100" fill="none" stroke="#FFFFFF" stroke-opacity="0.72" stroke-width="2" vector-effect="non-scaling-stroke"/> <rect x="520" y="320" width="100" height="100" fill="none" stroke="#FFFFFF" stroke-opacity="0.72" stroke-width="2" vector-effect="non-scaling-stroke"/> <rect x="620" y="320" width="100" height="100" fill="none" stroke="#FFFFFF" stroke-opacity="0.72" stroke-width="2" vector-effect="non-scaling-stroke"/> <rect x="720" y="320" width="100" height="100" fill="none" stroke="#FFFFFF" stroke-opacity="0.72" stroke-width="2" vector-effect="non-scaling-stroke"/> <rect x="820" y="320" width="100" height="100" fill="none" stroke="#FFFFFF" stroke-opacity="0.72" stroke-width="2" vector-effect="non-scaling-stroke"/> <rect x="920" y="320" width="100" height="100" fill="none" stroke="#FFFFFF" stroke-opacity="0.72" stroke-width="2" vector-effect="non-scaling-stroke"/> <rect x="1020" y="320" width="100" height="100" fill="none" stroke="#FFFFFF" stroke-opacity="0.72" stroke-width="2" vector-effect="non-scaling-stroke"/> <rect x="1120" y="320" width="100" height="100" fill="none" stroke="#FFFFFF" stroke-opacity="0.72" stroke-width="2" vector-effect="non-scaling-stroke"/> <rect x="20" y="420" width="100" height="100" fill="none" stroke="#FFFFFF" stroke-opacity="0.72" stroke-width="2" vector-effect="non-scaling-stroke"/> <rect x="120" y="420" width="100" height="100" fill="none" stroke="#FFFFFF" stroke-opacity="0.72" stroke-width="2" vector-effect="non-scaling-stroke"/> <rect x="220" y="420" width="100" height="100" fill="none" stroke="#FFFFFF" stroke-opacity="0.72" stroke-width="2" vector-effect="non-scaling-stroke"/> <rect x="320" y="420" width="100" height="100" fill="none" stroke="#FFFFFF" stroke-opacity="0.72" stroke-width="2" vector-effect="non-scaling-stroke"/> <rect x="420" y="420" width="100" height="100" fill="none" stroke="#FFFFFF" stroke-opacity="0.72" stroke-width="2" vector-effect="non-scaling-stroke"/> <rect x="520" y="420" width="100" height="100" fill="none" stroke="#FFFFFF" stroke-opacity="0.72" stroke-width="2" vector-effect="non-scaling-stroke"/> <rect x="620" y="420" width="100" height="100" fill="none" stroke="#FFFFFF" stroke-opacity="0.72" stroke-width="2" vector-effect="non-scaling-stroke"/> <rect x="720" y="420" width="100" height="100" fill="none" stroke="#FFFFFF" stroke-opacity="0.72" stroke-width="2" vector-effect="non-scaling-stroke"/> <rect x="820" y="420" width="100" height="100" fill="none" stroke="#FFFFFF" stroke-opacity="0.72" stroke-width="2" vector-effect="non-scaling-stroke"/> <rect x="920" y="420" width="100" height="100" fill="none" stroke="#FFFFFF" stroke-opacity="0.72" stroke-width="2" vector-effect="non-scaling-stroke"/> <rect x="1020" y="420" width="100" height="100" fill="none" stroke="#FFFFFF" stroke-opacity="0.72" stroke-width="2" vector-effect="non-scaling-stroke"/> <rect x="1120" y="420" width="100" height="100" fill="none" stroke="#FFFFFF" stroke-opacity="0.72" stroke-width="2" vector-effect="non-scaling-stroke"/> <rect x="1220" y="420" width="100" height="100" fill="none" stroke="#FFFFFF" stroke-opacity="0.72" stroke-width="2" vector-effect="non-scaling-stroke"/> <rect x="120" y="520" width="100" height="100" fill="none" stroke="#FFFFFF" stroke-opacity="0.72" stroke-width="2" vector-effect="non-scaling-stroke"/> <rect x="220" y="520" width="100" height="100" fill="none" stroke="#FFFFFF" stroke-opacity="0.72" stroke-width="2" vector-effect="non-scaling-stroke"/> <rect x="420" y="520" width="100" height="100" fill="none" stroke="#FFFFFF" stroke-opacity="0.72" stroke-width="2" vector-effect="non-scaling-stroke"/> <rect x="720" y="520" width="100" height="100" fill="none" stroke="#FFFFFF" stroke-opacity="0.72" stroke-width="2" vector-effect="non-scaling-stroke"/> <rect x="820" y="520" width="100" height="100" fill="none" stroke="#FFFFFF" stroke-opacity="0.72" stroke-width="2" vector-effect="non-scaling-stroke"/> <rect x="1020" y="520" width="100" height="100" fill="none" stroke="#FFFFFF" stroke-opacity="0.72" stroke-width="2" vector-effect="non-scaling-stroke"/> <rect x="1120" y="520" width="100" height="100" fill="none" stroke="#FFFFFF" stroke-opacity="0.72" stroke-width="2" vector-effect="non-scaling-stroke"/>
  </g>
</svg>
