<svg xmlns="http://www.w3.org/2000/svg" width="2050" height="1550" viewBox="0 0 2050 1550" role="img" aria-label="Black hollow cutout overlay with 250px padding around a transparent pixelated window">
  <path fill="#fff" d="M 650 250 H 750 V 300 H 650 Z M 850 250 H 950 V 300 H 850 Z M 1250 250 H 1400 V 300 H 1250 Z M 1500 250 H 1650 V 300 H 1500 Z M 350 300 H 400 V 350 H 350 Z M 550 300 H 1000 V 350 H 550 Z M 1200 300 H 1750 V 350 H 1200 Z M 300 350 H 1800 V 400 H 300 Z M 250 400 H 1800 V 450 H 250 Z M 250 450 H 1800 V 500 H 250 Z M 300 500 H 1750 V 550 H 300 Z M 300 550 H 1750 V 600 H 300 Z M 250 600 H 1750 V 650 H 250 Z M 250 650 H 1800 V 700 H 250 Z M 250 700 H 1800 V 750 H 250 Z M 250 750 H 1800 V 800 H 250 Z M 250 800 H 1750 V 850 H 250 Z M 300 850 H 1800 V 900 H 300 Z M 250 900 H 1800 V 950 H 250 Z M 250 950 H 1800 V 1000 H 250 Z M 300 1000 H 1800 V 1050 H 300 Z M 300 1050 H 1800 V 1100 H 300 Z M 250 1100 H 1800 V 1150 H 250 Z M 250 1150 H 1800 V 1200 H 250 Z M 300 1200 H 450 V 1250 H 300 Z M 500 1200 H 700 V 1250 H 500 Z M 750 1200 H 950 V 1250 H 750 Z M 1050 1200 H 1400 V 1250 H 1050 Z M 1450 1200 H 1500 V 1250 H 1450 Z M 1600 1200 H 1750 V 1250 H 1600 Z M 500 1250 H 600 V 1300 H 500 Z M 1100 1250 H 1350 V 1300 H 1100 Z"/>
</svg>
